<?xml version="1.0" standalone="no"?>
<!DOCTYPE svg PUBLIC "-//W3C//DTD SVG 20010904//EN"
 "http://www.w3.org/TR/2001/REC-SVG-20010904/DTD/svg10.dtd">
<svg version="1.0" xmlns="http://www.w3.org/2000/svg"
 width="72.000000pt" height="72.000000pt" viewBox="0 0 72.000000 72.000000"
 preserveAspectRatio="xMidYMid meet">
<metadata>
Created by potrace 1.15, written by Peter Selinger 2001-2017
</metadata>
<g transform="translate(0.000000,72.000000) scale(0.100000,-0.100000)"
fill="#000000" stroke="none">
<path d="M70 638 c-19 -21 -20 -34 -20 -288 0 -266 0 -267 23 -288 23 -21 30
-22 288 -22 265 0 266 0 287 23 21 23 22 30 22 286 l0 262 -25 24 -24 25 -265
0 c-260 0 -266 0 -286 -22z m553 5 c3 -5 -20 -6 -51 -4 -32 2 -121 0 -199 -4
-132 -7 -143 -9 -149 -28 -12 -37 -123 -135 -138 -120 -11 12 -6 139 6 151 14
14 523 18 531 5z m-409 -219 c9 -3 16 -12 16 -20 0 -10 13 -14 43 -15 23 -1
47 0 52 1 24 6 68 0 80 -10 9 -8 15 -8 20 0 10 16 75 13 75 -4 0 -10 -9 -14
-27 -13 -22 2 -28 -2 -28 -18 0 -16 6 -20 28 -18 17 1 27 -3 27 -11 0 -21 -35
-25 -66 -10 -19 10 -31 11 -38 4 -11 -11 -46 -13 -70 -4 -10 4 -16 18 -16 36
0 43 -34 35 -38 -10 -5 -47 -32 -43 -32 6 -1 30 -3 34 -11 20 -5 -10 -21 -18
-34 -18 -18 0 -25 -5 -25 -20 0 -13 -7 -20 -20 -20 -18 0 -20 7 -20 65 l0 65
34 0 c19 0 41 -3 50 -6z"/>
</g>
</svg>
